# xmcd
#
# Track frame offsets: 
#        150
#        13043
#        33069
#        49367
#        66165
#        86768
#        104040
#        123325
#        140712
#        155963
#        173068
#        189575
#        205416
#        219368
#        235227
#        251414
#        269083
#        286341
#        299441
#        315952
#
# Disc length: 4410 seconds
#
# Revision: 0
# Processed by: cddbd v1.5.2PL0 Copyright (c) Steve Scherf et al.
# Submitted via: ExactAudioCopy v0.99pb5
#
DISCID=37113814
DTITLE=LeAnn Rimes - Greatest Hits [CD2]
DYEAR=2003
DGENRE=Country
TTITLE0=Blue
TTITLE1=How Do I Live
TTITLE2=Can't Fight the Moonlight [Graham Stack Radio Edit]
TTITLE3=One Way Ticket (Because I Can)
TTITLE4=Commitment
TTITLE5=I Need You
TTITLE6=Written in Stars
TTITLE7=Unchained Melody
TTITLE8=The Light in Your Eyes
TTITLE9=On the Side on Angels
TTITLE10=You Light Up My Life
TTITLE11=Nothin' New Under the Moon
TTITLE12=Big Deal
TTITLE13=Life Goes On
TTITLE14=We Can
TTITLE15=Last Thing on My Mind
TTITLE16=This Love
TTITLE17=Crazy
TTITLE18=O Holy Night
TTITLE19=Put a little holiday in your heart
EXTD=
EXTT0=
EXTT1=
EXTT2=
EXTT3=
EXTT4=
EXTT5=
EXTT6=
EXTT7=
EXTT8=
EXTT9=
EXTT10=
EXTT11=
EXTT12=
EXTT13=
EXTT14=
EXTT15=
EXTT16=
EXTT17=
EXTT18=
EXTT19=
PLAYORDER=
